<svg xmlns="http://www.w3.org/2000/svg" version="1.1" xmlns:xlink="http://www.w3.org/1999/xlink" xmlns:svgjs="http://svgjs.com/svgjs" width="1440" height="250" preserveAspectRatio="none" viewBox="0 0 1440 250"><g mask="url(&quot;#SvgjsMask1003&quot;)" fill="none"><rect width="1440" height="250" x="0" y="0" fill="rgba(0, 0, 0, 1)"></rect><path d="M42 250L292 0L364 0L114 250z" fill="url(#SvgjsLinearGradient1004)"></path><path d="M248.60000000000002 250L498.6 0L837.6 0L587.6 250z" fill="url(#SvgjsLinearGradient1004)"></path><path d="M523.2 250L773.2 0L1130.2 0L880.2 250z" fill="url(#SvgjsLinearGradient1004)"></path><path d="M759.8000000000001 250L1009.8000000000001 0L1182.3000000000002 0L932.3000000000001 250z" fill="url(#SvgjsLinearGradient1004)"></path><path d="M1403 250L1153 0L914.5 0L1164.5 250z" fill="url(#SvgjsLinearGradient1005)"></path><path d="M1194.4 250L944.4000000000001 0L645.9000000000001 0L895.9000000000001 250z" fill="url(#SvgjsLinearGradient1005)"></path><path d="M955.8 250L705.8 0L474.79999999999995 0L724.8 250z" fill="url(#SvgjsLinearGradient1005)"></path><path d="M687.1999999999999 250L437.19999999999993 0L207.69999999999993 0L457.69999999999993 250z" fill="url(#SvgjsLinearGradient1005)"></path><path d="M1236.6690968315504 250L1440 46.66909683155032L1440 250z" fill="url(#SvgjsLinearGradient1004)"></path><path d="M0 250L203.33090316844968 250L 0 46.66909683155032z" fill="url(#SvgjsLinearGradient1005)"></path></g><defs><mask id="SvgjsMask1003"><rect width="1440" height="250" fill="#ffffff"></rect></mask><linearGradient x1="0%" y1="100%" x2="100%" y2="0%" id="SvgjsLinearGradient1004"><stop stop-color="rgba(15, 70, 185, 0.2)" offset="0"></stop><stop stop-opacity="0" stop-color="rgba(15, 70, 185, 0.2)" offset="0.66"></stop></linearGradient><linearGradient x1="100%" y1="100%" x2="0%" y2="0%" id="SvgjsLinearGradient1005"><stop stop-color="rgba(15, 70, 185, 0.2)" offset="0"></stop><stop stop-opacity="0" stop-color="rgba(15, 70, 185, 0.2)" offset="0.66"></stop></linearGradient></defs></svg>